<svg width="128" height="128" viewBox="0 0 128 128" fill="none" xmlns="http://www.w3.org/2000/svg">
  <defs>
    <linearGradient id="surface" x1="19" y1="10" x2="109" y2="118" gradientUnits="userSpaceOnUse">
      <stop stop-color="#FFFFFF"/>
      <stop offset="1" stop-color="#F6F9FC"/>
    </linearGradient>
    <linearGradient id="accent" x1="30" y1="22" x2="101" y2="104" gradientUnits="userSpaceOnUse">
      <stop stop-color="#635BFF"/>
      <stop offset="1" stop-color="#0A2540"/>
    </linearGradient>
    <linearGradient id="delete" x1="75" y1="70" x2="112" y2="111" gradientUnits="userSpaceOnUse">
      <stop stop-color="#FF6B6B"/>
      <stop offset="1" stop-color="#D92D20"/>
    </linearGradient>
    <filter id="cardShadow" x="6" y="8" width="116" height="116" filterUnits="userSpaceOnUse" color-interpolation-filters="sRGB">
      <feFlood flood-opacity="0" result="BackgroundImageFix"/>
      <feColorMatrix in="SourceAlpha" type="matrix" values="0 0 0 0 0 0 0 0 0 0 0 0 0 0 0 0 0 0 127 0" result="hardAlpha"/>
      <feOffset dy="8"/>
      <feGaussianBlur stdDeviation="10"/>
      <feColorMatrix type="matrix" values="0 0 0 0 0.039 0 0 0 0 0.145 0 0 0 0 0.251 0 0 0 0.18 0"/>
      <feBlend mode="normal" in2="BackgroundImageFix" result="effect1_dropShadow"/>
      <feBlend mode="normal" in="SourceGraphic" in2="effect1_dropShadow" result="shape"/>
    </filter>
    <filter id="badgeShadow" x="67" y="65" width="54" height="54" filterUnits="userSpaceOnUse" color-interpolation-filters="sRGB">
      <feFlood flood-opacity="0" result="BackgroundImageFix"/>
      <feColorMatrix in="SourceAlpha" type="matrix" values="0 0 0 0 0 0 0 0 0 0 0 0 0 0 0 0 0 0 127 0" result="hardAlpha"/>
      <feOffset dy="4"/>
      <feGaussianBlur stdDeviation="5"/>
      <feColorMatrix type="matrix" values="0 0 0 0 0.039 0 0 0 0 0.145 0 0 0 0 0.251 0 0 0 0.22 0"/>
      <feBlend mode="normal" in2="BackgroundImageFix" result="effect1_dropShadow"/>
      <feBlend mode="normal" in="SourceGraphic" in2="effect1_dropShadow" result="shape"/>
    </filter>
  </defs>

  <rect width="128" height="128" rx="30" fill="#14B8A6"/>
  <path d="M0 39C31 14 57 10 83 24C101 34 116 31 128 20V0H0V39Z" fill="#2DD4BF"/>
  <path d="M0 128V91C24 107 47 111 69 101C92 90 109 96 128 116V128H0Z" fill="#99F6E4" fill-opacity="0.82"/>

  <g filter="url(#cardShadow)">
    <rect x="22" y="20" width="84" height="84" rx="22" fill="url(#surface)" stroke="#E6EBF1" stroke-width="2"/>
    <rect x="34" y="34" width="60" height="48" rx="14" fill="#FFFFFF" stroke="#E6EBF1" stroke-width="2"/>
    <path d="M49 82H62L46 95C44.7 96.05 42.8 95.13 42.8 93.46V81.6C42.8 81.27 43.07 81 43.4 81H49V82Z" fill="#FFFFFF" stroke="#E6EBF1" stroke-width="2" stroke-linejoin="round"/>
    <path d="M48 48H80" stroke="#0A2540" stroke-width="7" stroke-linecap="round"/>
    <path d="M48 63H69" stroke="url(#accent)" stroke-width="7" stroke-linecap="round"/>
    <circle cx="86" cy="41" r="5" fill="#635BFF"/>
  </g>

  <g filter="url(#badgeShadow)">
    <circle cx="94" cy="92" r="23" fill="url(#delete)" stroke="#FFFFFF" stroke-width="7"/>
    <path d="M84.5 82.5L103.5 101.5" stroke="#FFFFFF" stroke-width="6.5" stroke-linecap="round"/>
    <path d="M103.5 82.5L84.5 101.5" stroke="#FFFFFF" stroke-width="6.5" stroke-linecap="round"/>
  </g>
</svg>
